<svg width="20" height="20" viewBox="0 0 20 20" fill="none" xmlns="http://www.w3.org/2000/svg">
<path d="M18.3363 9.95875L13.5038 8.22188L11.4838 5.68563C11.3081 5.47088 11.0869 5.29793 10.836 5.17934C10.5852 5.06075 10.3112 4.99949 10.0338 5H5.03625C4.73061 4.9999 4.42958 5.07457 4.15941 5.2175C3.88924 5.36042 3.65814 5.56727 3.48625 5.82L1.79125 8.30938C1.43822 8.82746 1.2496 9.43995 1.25 10.0669V15C1.25 15.1658 1.31585 15.3247 1.43306 15.4419C1.55027 15.5592 1.70924 15.625 1.875 15.625H3.21375C3.34971 16.1614 3.66064 16.6372 4.09736 16.977C4.53408 17.3168 5.07164 17.5013 5.625 17.5013C6.17836 17.5013 6.71592 17.3168 7.15264 16.977C7.58936 16.6372 7.90029 16.1614 8.03625 15.625H11.9638C12.0997 16.1614 12.4106 16.6372 12.8474 16.977C13.2841 17.3168 13.8216 17.5013 14.375 17.5013C14.9284 17.5013 15.4659 17.3168 15.9026 16.977C16.3394 16.6372 16.6503 16.1614 16.7863 15.625H18.125C18.2908 15.625 18.4497 15.5592 18.5669 15.4419C18.6842 15.3247 18.75 15.1658 18.75 15V10.5469C18.75 10.4182 18.7102 10.2926 18.6362 10.1874C18.5621 10.0821 18.4574 10.0023 18.3363 9.95875ZM5.625 16.25C5.37777 16.25 5.1361 16.1767 4.93054 16.0393C4.72498 15.902 4.56476 15.7068 4.47015 15.4784C4.37554 15.25 4.35079 14.9986 4.39902 14.7561C4.44725 14.5137 4.5663 14.2909 4.74112 14.1161C4.91593 13.9413 5.13866 13.8223 5.38114 13.774C5.62361 13.7258 5.87495 13.7505 6.10335 13.8452C6.33176 13.9398 6.52699 14.1 6.66434 14.3055C6.80169 14.5111 6.875 14.7528 6.875 15C6.8745 15.3314 6.74265 15.649 6.50834 15.8833C6.27402 16.1177 5.95637 16.2495 5.625 16.25ZM14.375 16.25C14.1278 16.25 13.8861 16.1767 13.6805 16.0393C13.475 15.902 13.3148 15.7068 13.2202 15.4784C13.1255 15.25 13.1008 14.9986 13.149 14.7561C13.1973 14.5137 13.3163 14.2909 13.4911 14.1161C13.6659 13.9413 13.8887 13.8223 14.1311 13.774C14.3736 13.7258 14.6249 13.7505 14.8534 13.8452C15.0818 13.9398 15.277 14.1 15.4143 14.3055C15.5517 14.5111 15.625 14.7528 15.625 15C15.6247 15.3314 15.4929 15.6492 15.2585 15.8835C15.0242 16.1179 14.7064 16.2497 14.375 16.25ZM17.5 14.375H16.7863C16.6503 13.8386 16.3394 13.3629 15.9026 13.023C15.4659 12.6832 14.9284 12.4987 14.375 12.4987C13.8216 12.4987 13.2841 12.6832 12.8474 13.023C12.4106 13.3629 12.0997 13.8386 11.9638 14.375H8.03625C7.90029 13.8386 7.58936 13.3629 7.15264 13.023C6.71592 12.6832 6.17836 12.4987 5.625 12.4987C5.07164 12.4987 4.53408 12.6832 4.09736 13.023C3.66064 13.3629 3.34971 13.8386 3.21375 14.375H2.5V10.0669C2.49993 9.69055 2.61318 9.32293 2.825 9.01188L4.51938 6.52375C4.57667 6.43943 4.65372 6.3704 4.74381 6.32268C4.83391 6.27497 4.9343 6.25002 5.03625 6.25H10.0338C10.1247 6.24965 10.2146 6.26928 10.2971 6.30751C10.3796 6.34574 10.4527 6.40164 10.5113 6.47125L12.6363 9.13938C12.7085 9.23009 12.8046 9.29891 12.9138 9.33813L17.5 10.9863V14.375Z" fill="white"/>
</svg>
