<svg width="20" height="20" viewBox="0 0 20 20" fill="none" xmlns="http://www.w3.org/2000/svg">
<path d="M6.66667 4.99999C6.66667 5.221 6.57887 5.43296 6.42259 5.58925C6.26631 5.74553 6.05435 5.83332 5.83333 5.83332C5.61232 5.83332 5.40036 5.74553 5.24408 5.58925C5.0878 5.43296 5 5.221 5 4.99999C5 4.77898 5.0878 4.56701 5.24408 4.41073C5.40036 4.25445 5.61232 4.16666 5.83333 4.16666C6.05435 4.16666 6.26631 4.25445 6.42259 4.41073C6.57887 4.56701 6.66667 4.77898 6.66667 4.99999ZM5.83333 8.33332C6.05435 8.33332 6.26631 8.24553 6.42259 8.08925C6.57887 7.93296 6.66667 7.721 6.66667 7.49999C6.66667 7.27898 6.57887 7.06701 6.42259 6.91073C6.26631 6.75445 6.05435 6.66666 5.83333 6.66666C5.61232 6.66666 5.40036 6.75445 5.24408 6.91073C5.0878 7.06701 5 7.27898 5 7.49999C5 7.721 5.0878 7.93296 5.24408 8.08925C5.40036 8.24553 5.61232 8.33332 5.83333 8.33332ZM6.66667 9.99999C6.66667 10.221 6.57887 10.433 6.42259 10.5892C6.26631 10.7455 6.05435 10.8333 5.83333 10.8333C5.61232 10.8333 5.40036 10.7455 5.24408 10.5892C5.0878 10.433 5 10.221 5 9.99999C5 9.77898 5.0878 9.56701 5.24408 9.41073C5.40036 9.25445 5.61232 9.16666 5.83333 9.16666C6.05435 9.16666 6.26631 9.25445 6.42259 9.41073C6.57887 9.56701 6.66667 9.77898 6.66667 9.99999ZM6.66667 12.5C6.66667 12.721 6.57887 12.933 6.42259 13.0892C6.26631 13.2455 6.05435 13.3333 5.83333 13.3333C5.61232 13.3333 5.40036 13.2455 5.24408 13.0892C5.0878 12.933 5 12.721 5 12.5C5 12.279 5.0878 12.067 5.24408 11.9107C5.40036 11.7545 5.61232 11.6667 5.83333 11.6667C6.05435 11.6667 6.26631 11.7545 6.42259 11.9107C6.57887 12.067 6.66667 12.279 6.66667 12.5ZM5.83333 15.8333C6.05435 15.8333 6.26631 15.7455 6.42259 15.5892C6.57887 15.433 6.66667 15.221 6.66667 15C6.66667 14.779 6.57887 14.567 6.42259 14.4107C6.26631 14.2545 6.05435 14.1667 5.83333 14.1667C5.61232 14.1667 5.40036 14.2545 5.24408 14.4107C5.0878 14.567 5 14.779 5 15C5 15.221 5.0878 15.433 5.24408 15.5892C5.40036 15.7455 5.61232 15.8333 5.83333 15.8333ZM11.6667 13.3333C11.8877 13.3333 12.0996 13.2455 12.2559 13.0892C12.4122 12.933 12.5 12.721 12.5 12.5C12.5 12.279 12.4122 12.067 12.2559 11.9107C12.0996 11.7545 11.8877 11.6667 11.6667 11.6667C11.4457 11.6667 11.2337 11.7545 11.0774 11.9107C10.9211 12.067 10.8333 12.279 10.8333 12.5C10.8333 12.721 10.9211 12.933 11.0774 13.0892C11.2337 13.2455 11.4457 13.3333 11.6667 13.3333ZM14.1667 13.3333C14.3877 13.3333 14.5996 13.2455 14.7559 13.0892C14.9122 12.933 15 12.721 15 12.5C15 12.279 14.9122 12.067 14.7559 11.9107C14.5996 11.7545 14.3877 11.6667 14.1667 11.6667C13.9457 11.6667 13.7337 11.7545 13.5774 11.9107C13.4211 12.067 13.3333 12.279 13.3333 12.5C13.3333 12.721 13.4211 12.933 13.5774 13.0892C13.7337 13.2455 13.9457 13.3333 14.1667 13.3333ZM14.1667 10.8333C14.3877 10.8333 14.5996 10.7455 14.7559 10.5892C14.9122 10.433 15 10.221 15 9.99999C15 9.77898 14.9122 9.56701 14.7559 9.41073C14.5996 9.25445 14.3877 9.16666 14.1667 9.16666C13.9457 9.16666 13.7337 9.25445 13.5774 9.41073C13.4211 9.56701 13.3333 9.77898 13.3333 9.99999C13.3333 10.221 13.4211 10.433 13.5774 10.5892C13.7337 10.7455 13.9457 10.8333 14.1667 10.8333ZM12.5 9.99999C12.5 10.221 12.4122 10.433 12.2559 10.5892C12.0996 10.7455 11.8877 10.8333 11.6667 10.8333C11.4457 10.8333 11.2337 10.7455 11.0774 10.5892C10.9211 10.433 10.8333 10.221 10.8333 9.99999C10.8333 9.77898 10.9211 9.56701 11.0774 9.41073C11.2337 9.25445 11.4457 9.16666 11.6667 9.16666C11.8877 9.16666 12.0996 9.25445 12.2559 9.41073C12.4122 9.56701 12.5 9.77898 12.5 9.99999ZM14.1667 8.33332C14.3877 8.33332 14.5996 8.24553 14.7559 8.08925C14.9122 7.93296 15 7.721 15 7.49999C15 7.27898 14.9122 7.06701 14.7559 6.91073C14.5996 6.75445 14.3877 6.66666 14.1667 6.66666C13.9457 6.66666 13.7337 6.75445 13.5774 6.91073C13.4211 7.06701 13.3333 7.27898 13.3333 7.49999C13.3333 7.721 13.4211 7.93296 13.5774 8.08925C13.7337 8.24553 13.9457 8.33332 14.1667 8.33332ZM12.5 7.49999C12.5 7.721 12.4122 7.93296 12.2559 8.08925C12.0996 8.24553 11.8877 8.33332 11.6667 8.33332C11.4457 8.33332 11.2337 8.24553 11.0774 8.08925C10.9211 7.93296 10.8333 7.721 10.8333 7.49999C10.8333 7.27898 10.9211 7.06701 11.0774 6.91073C11.2337 6.75445 11.4457 6.66666 11.6667 6.66666C11.8877 6.66666 12.0996 6.75445 12.2559 6.91073C12.4122 7.06701 12.5 7.27898 12.5 7.49999ZM11.6667 4.16666V3.54166C11.6667 3.04438 11.4691 2.56746 11.1175 2.21583C10.7659 1.8642 10.2889 1.66666 9.79167 1.66666H4.375C3.87772 1.66666 3.40081 1.8642 3.04917 2.21583C2.69754 2.56746 2.5 3.04438 2.5 3.54166V17.2917C2.5 17.6367 2.78 17.9167 3.125 17.9167H16.875C17.0408 17.9167 17.1997 17.8508 17.3169 17.7336C17.4342 17.6164 17.5 17.4574 17.5 17.2917V6.04166C17.5 5.54438 17.3025 5.06746 16.9508 4.71583C16.5992 4.3642 16.1223 4.16666 15.625 4.16666H11.6667ZM3.75 3.54166C3.75 3.3759 3.81585 3.21692 3.93306 3.09971C4.05027 2.9825 4.20924 2.91666 4.375 2.91666H9.79167C9.95743 2.91666 10.1164 2.9825 10.2336 3.09971C10.3508 3.21692 10.4167 3.3759 10.4167 3.54166V4.16666H10.2083C9.71105 4.16666 9.23414 4.3642 8.88251 4.71583C8.53088 5.06746 8.33333 5.54438 8.33333 6.04166V16.6667H3.75V3.54166ZM12.0833 16.6667V15.4167H13.75V16.6667H12.0833ZM15 14.7917C15 14.6259 14.9342 14.4669 14.8169 14.3497C14.6997 14.2325 14.5408 14.1667 14.375 14.1667H11.4583C11.2926 14.1667 11.1336 14.2325 11.0164 14.3497C10.8992 14.4669 10.8333 14.6259 10.8333 14.7917V16.6667H9.58333V6.04166C9.58333 5.8759 9.64918 5.71692 9.76639 5.59971C9.8836 5.4825 10.0426 5.41666 10.2083 5.41666H15.625C15.7908 5.41666 15.9497 5.4825 16.0669 5.59971C16.1842 5.71692 16.25 5.8759 16.25 6.04166V16.6667H15V14.7917Z" fill="white"/>
</svg>
