<svg width="47" height="10" viewBox="0 0 47 10" fill="none" xmlns="http://www.w3.org/2000/svg">
<path d="M8.86814 3.44825L6.38864 3.08789L5.28025 0.840824C5.24997 0.7793 5.20017 0.729496 5.13864 0.699222C4.98435 0.62305 4.79685 0.686527 4.7197 0.840824L3.6113 3.08789L1.13181 3.44825C1.06345 3.45801 1.00095 3.49024 0.953098 3.53907C0.895248 3.59853 0.86337 3.67852 0.864468 3.76147C0.865567 3.84442 0.899552 3.92354 0.958957 3.98145L2.7529 5.73047L2.32907 8.2002C2.31914 8.25765 2.32549 8.31674 2.34743 8.37076C2.36936 8.42478 2.40599 8.47158 2.45316 8.50584C2.50034 8.5401 2.55617 8.56046 2.61433 8.56461C2.67248 8.56876 2.73064 8.55652 2.7822 8.5293L4.99997 7.36328L7.21775 8.5293C7.27829 8.56153 7.34861 8.57227 7.41599 8.56055C7.58591 8.53125 7.70017 8.37012 7.67087 8.2002L7.24704 5.73047L9.04099 3.98145C9.08982 3.9336 9.12204 3.8711 9.13181 3.80274C9.15818 3.63184 9.03903 3.47364 8.86814 3.44825V3.44825Z" fill="black"/>
<path d="M18.8681 3.44825L16.3886 3.08789L15.2802 0.840824C15.25 0.7793 15.2002 0.729496 15.1386 0.699222C14.9843 0.62305 14.7968 0.686527 14.7197 0.840824L13.6113 3.08789L11.1318 3.44825C11.0634 3.45801 11.0009 3.49024 10.9531 3.53907C10.8952 3.59853 10.8634 3.67852 10.8645 3.76147C10.8656 3.84442 10.8996 3.92354 10.959 3.98145L12.7529 5.73047L12.3291 8.2002C12.3191 8.25765 12.3255 8.31674 12.3474 8.37076C12.3694 8.42478 12.406 8.47158 12.4532 8.50584C12.5003 8.5401 12.5562 8.56046 12.6143 8.56461C12.6725 8.56876 12.7306 8.55652 12.7822 8.5293L15 7.36328L17.2177 8.5293C17.2783 8.56153 17.3486 8.57227 17.416 8.56055C17.5859 8.53125 17.7002 8.37012 17.6709 8.2002L17.247 5.73047L19.041 3.98145C19.0898 3.9336 19.122 3.8711 19.1318 3.80274C19.1582 3.63184 19.039 3.47364 18.8681 3.44825V3.44825Z" fill="black"/>
<path d="M27.8681 3.44825L25.3886 3.08789L24.2802 0.840824C24.25 0.7793 24.2002 0.729496 24.1386 0.699222C23.9843 0.62305 23.7968 0.686527 23.7197 0.840824L22.6113 3.08789L20.1318 3.44825C20.0634 3.45801 20.0009 3.49024 19.9531 3.53907C19.8952 3.59853 19.8634 3.67852 19.8645 3.76147C19.8656 3.84442 19.8996 3.92354 19.959 3.98145L21.7529 5.73047L21.3291 8.2002C21.3191 8.25765 21.3255 8.31674 21.3474 8.37076C21.3694 8.42478 21.406 8.47158 21.4532 8.50584C21.5003 8.5401 21.5562 8.56046 21.6143 8.56461C21.6725 8.56876 21.7306 8.55652 21.7822 8.5293L24 7.36328L26.2177 8.5293C26.2783 8.56153 26.3486 8.57227 26.416 8.56055C26.5859 8.53125 26.7002 8.37012 26.6709 8.2002L26.247 5.73047L28.041 3.98145C28.0898 3.9336 28.122 3.8711 28.1318 3.80274C28.1582 3.63184 28.039 3.47364 27.8681 3.44825V3.44825Z" fill="black"/>
<path d="M36.8681 3.44825L34.3886 3.08789L33.2802 0.840824C33.25 0.7793 33.2002 0.729496 33.1386 0.699222C32.9843 0.62305 32.7968 0.686527 32.7197 0.840824L31.6113 3.08789L29.1318 3.44825C29.0634 3.45801 29.0009 3.49024 28.9531 3.53907C28.8952 3.59853 28.8634 3.67852 28.8645 3.76147C28.8656 3.84442 28.8996 3.92354 28.959 3.98145L30.7529 5.73047L30.3291 8.2002C30.3191 8.25765 30.3255 8.31674 30.3474 8.37076C30.3694 8.42478 30.406 8.47158 30.4532 8.50584C30.5003 8.5401 30.5562 8.56046 30.6143 8.56461C30.6725 8.56876 30.7306 8.55652 30.7822 8.5293L33 7.36328L35.2177 8.5293C35.2783 8.56153 35.3486 8.57227 35.416 8.56055C35.5859 8.53125 35.7002 8.37012 35.6709 8.2002L35.247 5.73047L37.041 3.98145C37.0898 3.9336 37.122 3.8711 37.1318 3.80274C37.1582 3.63184 37.039 3.47364 36.8681 3.44825V3.44825Z" fill="white"/>
<path d="M45.8681 3.44825L43.3886 3.08789L42.2802 0.840824C42.25 0.7793 42.2002 0.729496 42.1386 0.699222C41.9843 0.62305 41.7968 0.686527 41.7197 0.840824L40.6113 3.08789L38.1318 3.44825C38.0634 3.45801 38.0009 3.49024 37.9531 3.53907C37.8952 3.59853 37.8634 3.67852 37.8645 3.76147C37.8656 3.84442 37.8996 3.92354 37.959 3.98145L39.7529 5.73047L39.3291 8.2002C39.3191 8.25765 39.3255 8.31674 39.3474 8.37076C39.3694 8.42478 39.406 8.47158 39.4532 8.50584C39.5003 8.5401 39.5562 8.56046 39.6143 8.56461C39.6725 8.56876 39.7306 8.55652 39.7822 8.5293L42 7.36328L44.2177 8.5293C44.2783 8.56153 44.3486 8.57227 44.416 8.56055C44.5859 8.53125 44.7002 8.37012 44.6709 8.2002L44.247 5.73047L46.041 3.98145C46.0898 3.9336 46.122 3.8711 46.1318 3.80274C46.1582 3.63184 46.039 3.47364 45.8681 3.44825V3.44825Z" fill="white"/>
</svg>
