<svg width="61" height="118" viewBox="0 0 61 118" fill="none" xmlns="http://www.w3.org/2000/svg">
<circle cx="30" cy="107" r="11" fill="#DADADA" fill-opacity="0.5"/>
<circle cx="30" cy="107" r="7.33333" fill="white"/>
<circle cx="30" cy="107" r="3.66667" fill="#5531B9"/>
<path d="M6.5359 48.9278L31.4339 84L54.4645 48.9278L31.4339 53.5253L6.5359 48.9278Z" fill="#705BF4"/>
<ellipse cx="30.5" cy="30.3093" rx="30.5" ry="30.3093" fill="#705BF4"/>
<ellipse cx="30.4999" cy="30.3093" rx="21.7857" ry="21.6495" fill="white"/>
<path d="M37.5412 34.5578L36.2706 23.2421C36.1965 22.5818 35.6349 22.0825 34.9665 22.0825H25.9965C25.3233 22.0825 24.7595 22.5883 24.6906 23.2533L23.5273 34.5578H37.5412Z" fill="#030303"/>
<path d="M30.5299 32.1997C32.7837 32.1997 34.6108 30.3841 34.6108 28.1443C34.6108 25.9046 32.7837 24.089 30.5299 24.089C28.2761 24.089 26.449 25.9046 26.449 28.1443C26.449 30.3841 28.2761 32.1997 30.5299 32.1997Z" fill="white" fill-opacity="0.2"/>
<path d="M38.134 34.7172H22.8657L22.657 36.8042C22.657 37.6702 23.5284 37.6702 23.5284 37.6702H37.4713C37.4713 37.6702 38.3427 37.6702 38.3427 36.8042L38.134 34.7172Z" fill="black"/>
<path d="M38.1658 35.0341L38.134 34.7171C38.0725 34.3976 37.7985 34.2062 37.4712 34.2062H23.5284C23.2012 34.2062 22.9271 34.3976 22.8657 34.7171L22.8339 35.0341H38.1658Z" fill="#CCD6DD"/>
<path d="M35.5747 27.9841L32.2336 27.4438L34.2113 24.7125C34.2579 24.6484 34.251 24.5592 34.1943 24.5029C34.1372 24.4471 34.0479 24.4397 33.9834 24.486L31.2345 26.4509L30.6912 23.1312C30.6785 23.0528 30.6097 22.9952 30.53 22.9952C30.4502 22.9952 30.3814 23.0528 30.3688 23.1312L29.825 26.4509L27.0765 24.486C27.0116 24.4397 26.9227 24.4471 26.8656 24.5029C26.809 24.5596 26.802 24.648 26.8486 24.7125L28.8259 27.4438L25.4848 27.9841C25.406 27.9967 25.348 28.0647 25.348 28.1444C25.348 28.224 25.406 28.292 25.4848 28.3046L28.8259 28.8449L26.8486 31.5762C26.802 31.6407 26.809 31.7295 26.8656 31.7858C26.9227 31.8417 27.0116 31.849 27.0765 31.8027L29.825 29.8378L30.3688 33.1575C30.3814 33.2363 30.4502 33.2935 30.53 33.2935C30.6097 33.2935 30.6785 33.2354 30.6912 33.1575L31.2345 29.8378L33.983 31.8027C34.0475 31.8486 34.1372 31.8417 34.1939 31.7858C34.2505 31.7291 34.2575 31.6407 34.2109 31.5762L32.2336 28.8449L35.5747 28.3046C35.654 28.292 35.7115 28.2236 35.7115 28.1444C35.7115 28.0651 35.654 27.9967 35.5747 27.9841Z" fill="white"/>
</svg>
