<svg width="61" height="118" viewBox="0 0 61 118" fill="none" xmlns="http://www.w3.org/2000/svg">
<circle cx="30" cy="106.614" r="11" fill="#DADADA" fill-opacity="0.5"/>
<circle cx="30" cy="106.614" r="7.33333" fill="white"/>
<circle cx="30" cy="106.614" r="3.66667" fill="#5531B9"/>
<path d="M6.53578 48.9278L31.4337 84L54.4644 48.9278L31.4337 53.5253L6.53578 48.9278Z" fill="#705BF4"/>
<ellipse cx="30.5" cy="30.3093" rx="30.5" ry="30.3093" fill="#705BF4"/>
<ellipse cx="30.5001" cy="30.3093" rx="21.7857" ry="21.6495" fill="white"/>
<path fill-rule="evenodd" clip-rule="evenodd" d="M34.456 15.1546L34.1317 15.4769L37.8307 19.1527L36.9785 20.2821V20.7379H39.2718V20.5848L41.814 23.1112L42.1383 22.7889L34.456 15.1546ZM36.0612 19.3706H33.768V19.8264H35.4879L33.768 22.1053V22.561H36.0612V22.1053H34.3459L36.0612 19.8264V19.3706ZM39.2718 18.0032V17.5475H37.5124L37.971 18.0032H38.6984L38.3866 18.4162L38.715 18.7425L39.2718 18.0032ZM38.9672 20.2821H37.5564H37.556L38.16 19.48L38.9672 20.2821ZM42.4823 15.7244H40.189V16.1801H41.909L40.189 18.459V18.9148H42.4823V18.459H40.7669L42.4823 16.1801V15.7244ZM33.0441 29.4549C32.0227 30.4699 30.6374 31.0401 29.1929 31.0401C27.7484 31.0401 26.3631 30.4699 25.3417 29.4549C24.3203 28.4399 23.7465 27.0632 23.7465 25.6278C23.7465 24.1923 24.3203 22.8157 25.3417 21.8007C26.3631 20.7856 27.7484 20.2154 29.1929 20.2154C30.6374 20.2154 32.0227 20.7856 33.0441 21.8007C34.0655 22.8157 34.6393 24.1923 34.6393 25.6278C34.6393 27.0632 34.0655 28.4399 33.0441 29.4549ZM31.7604 28.1792C32.4413 27.5025 32.8239 26.5847 32.8239 25.6278C32.8239 24.6708 32.4413 23.753 31.7604 23.0764C31.0794 22.3997 30.1559 22.0195 29.1929 22.0195C28.2299 22.0195 27.3064 22.3997 26.6254 23.0764C25.9445 23.753 25.562 24.6708 25.562 25.6278C25.562 26.5847 25.9445 27.5025 26.6254 28.1792C27.3064 28.8559 28.2299 29.236 29.1929 29.236C30.1559 29.236 31.0794 28.8559 31.7604 28.1792ZM38.2703 41.8649C38.2703 41.8649 40.0858 41.8649 40.0858 40.0608C40.0858 38.2566 38.2703 32.8443 29.1929 32.8443C20.1155 32.8443 18.3 38.2566 18.3 40.0608C18.3 41.8649 20.1155 41.8649 20.1155 41.8649H38.2703ZM36.7598 37.0515C37.9907 38.2747 38.2685 39.6097 38.2703 40.0535H20.1155C20.1192 39.6097 20.3951 38.2747 21.626 37.0515C22.8097 35.8752 25.0355 34.6484 29.1929 34.6484C33.3485 34.6484 35.5761 35.8752 36.7598 37.0515Z" fill="black"/>
</svg>
