<svg width="20" height="20" viewBox="0 0 20 20" fill="none" xmlns="http://www.w3.org/2000/svg">
<path d="M19.1831 10.8255L19.1854 10.828C19.2178 10.8637 19.2392 10.9082 19.2468 10.9559C19.2545 11.0037 19.2481 11.0527 19.2285 11.0968C19.2088 11.141 19.1768 11.1784 19.1364 11.2045C19.0961 11.2306 19.049 11.2444 19.0011 11.2442H18.9979H16.9981H16.2481V11.9942V18.9993C16.2481 19.066 16.2216 19.1298 16.1747 19.1768C16.1278 19.2237 16.0643 19.25 15.9982 19.25H12.9985C12.9325 19.25 12.869 19.2237 12.8221 19.1768C12.7751 19.1298 12.7486 19.066 12.7486 18.9993V14.9964V14.2464H11.9986H7.99909H7.24909V14.9964V18.9993C7.24909 19.066 7.22261 19.1298 7.17568 19.1768C7.12877 19.2237 7.06527 19.25 6.9992 19.25H3.99954C3.93346 19.25 3.86997 19.2237 3.82306 19.1768C3.77613 19.1298 3.74965 19.066 3.74965 18.9993V11.9942V11.2442H2.99965H0.999872C0.900677 11.2442 0.812159 11.1861 0.772744 11.0971L0.771701 11.0947C0.752008 11.0507 0.745517 11.0018 0.753053 10.9541C0.760588 10.9063 0.781806 10.8619 0.814041 10.8261L0.814634 10.8255L9.81363 0.818221L9.81415 0.817636C9.84219 0.786393 9.90462 0.75 9.99887 0.75C10.0931 0.75 10.1555 0.786393 10.1836 0.817637L10.1841 0.818221L19.1831 10.8255Z" fill="white" stroke="black" stroke-width="1.5"/>
</svg>
