<svg width="21" height="20" viewBox="0 0 21 20" fill="none" xmlns="http://www.w3.org/2000/svg">
<path d="M17.6685 16C18.2185 16 18.6685 16.45 18.6685 17C18.6685 17.55 18.2185 18 17.6685 18H3.66852C3.11852 18 2.66852 17.55 2.66852 17C2.66852 16.45 3.11852 16 3.66852 16H17.6685ZM17.6685 14H3.66852C2.01452 14 0.668518 15.346 0.668518 17C0.668518 18.654 2.01452 20 3.66852 20H17.6685C19.3225 20 20.6685 18.654 20.6685 17C20.6685 15.346 19.3225 14 17.6685 14ZM17.6685 9C18.2185 9 18.6685 9.45 18.6685 10C18.6685 10.55 18.2185 11 17.6685 11H3.66852C3.11852 11 2.66852 10.55 2.66852 10C2.66852 9.45 3.11852 9 3.66852 9H17.6685ZM17.6685 7H3.66852C2.01452 7 0.668518 8.346 0.668518 10C0.668518 11.654 2.01452 13 3.66852 13H17.6685C19.3225 13 20.6685 11.654 20.6685 10C20.6685 8.346 19.3225 7 17.6685 7ZM17.6685 2C18.2185 2 18.6685 2.45 18.6685 3C18.6685 3.55 18.2185 4 17.6685 4H3.66852C3.11852 4 2.66852 3.55 2.66852 3C2.66852 2.45 3.11852 2 3.66852 2H17.6685ZM17.6685 0H3.66852C2.01452 0 0.668518 1.346 0.668518 3C0.668518 4.654 2.01452 6 3.66852 6H17.6685C19.3225 6 20.6685 4.654 20.6685 3C20.6685 1.346 19.3225 0 17.6685 0Z" fill="#070707"/>
</svg>
