<svg width="20" height="20" viewBox="0 0 20 20" fill="none" xmlns="http://www.w3.org/2000/svg">
<path d="M10.8333 1.66669C9.91768 1.66669 9.02259 1.92392 8.26125 2.40586C7.49991 2.88779 6.90652 3.57279 6.55611 4.37422C6.20571 5.17565 6.11403 6.05752 6.29266 6.90831C6.4713 7.75911 6.91223 8.54061 7.55969 9.154C8.20716 9.76739 9.03208 10.1851 9.93014 10.3543C10.8282 10.5236 11.7591 10.4367 12.605 10.1048C13.451 9.77279 14.174 9.21063 14.6827 8.48936C15.1914 7.7681 15.463 6.92011 15.463 6.05265C15.463 4.88942 14.9752 3.77383 14.107 2.95131C13.2388 2.12878 12.0612 1.66669 10.8333 1.66669ZM10.8333 8.68423C10.2839 8.68423 9.74689 8.52989 9.29008 8.24073C8.83328 7.95157 8.47724 7.54057 8.267 7.05971C8.05676 6.57886 8.00175 6.04973 8.10893 5.53926C8.21611 5.02878 8.48067 4.55988 8.86915 4.19184C9.25763 3.82381 9.75258 3.57318 10.2914 3.47164C10.8303 3.3701 11.3888 3.42221 11.8963 3.62139C12.4039 3.82057 12.8377 4.15786 13.143 4.59063C13.4482 5.02339 13.6111 5.53218 13.6111 6.05265C13.6111 6.75059 13.3185 7.41994 12.7975 7.91346C12.2766 8.40698 11.57 8.68423 10.8333 8.68423ZM19.1667 18.3334V17.4562C19.1667 15.8276 18.4838 14.2658 17.2683 13.1143C16.0528 11.9627 14.4042 11.3158 12.6852 11.3158H8.98148C7.26249 11.3158 5.6139 11.9627 4.39838 13.1143C3.18287 14.2658 2.5 15.8276 2.5 17.4562V18.3334H4.35185V17.4562C4.35185 16.2929 4.83961 15.1773 5.70784 14.3548C6.57606 13.5323 7.75363 13.0702 8.98148 13.0702H12.6852C13.913 13.0702 15.0906 13.5323 15.9588 14.3548C16.8271 15.1773 17.3148 16.2929 17.3148 17.4562V18.3334H19.1667Z" fill="#070707"/>
</svg>
