<svg width="20" height="20" viewBox="0 0 20 20" fill="none" xmlns="http://www.w3.org/2000/svg">
<path d="M15.5327 8.40857C15.5327 7.60214 13.0553 6.94857 10 6.94857C6.94467 6.94857 4.46767 7.60214 4.46767 8.40857L2.936 16.9832C2.92533 17.0144 2.91937 17.0472 2.91833 17.0804V18.5404C2.91867 19.3461 6.08933 20 10 20C13.9113 20 17.0817 19.3461 17.0817 18.5404V17.0804C17.081 17.0472 17.0751 17.0143 17.0643 16.9832L15.5327 8.40857V8.40857ZM12.877 15.9925L10.616 14.5007L10 17.2096L9.384 14.5011L7.123 15.9929L8.48 13.5068L6.01667 12.8296L8.48 12.1529L7.123 9.66607L9.384 11.1586L10 8.44964L10.616 11.1575L12.877 9.66571L11.5203 12.1521L13.9833 12.8293L11.5203 13.5068L12.877 15.9925V15.9925ZM17.7733 1.73393L15.2977 5.81393L19.3203 3.40464L17.7733 1.73393ZM2.22733 1.73393L0.68 3.40464L4.70267 5.81393L2.22733 1.73393ZM0 6.94714V8.90179L3.74567 8.32679L0 6.94714ZM16.2547 8.32679L20 8.90179V6.94714L16.2547 8.32679ZM7.405 0L5.389 0.347857L7.907 5.25607L7.405 0ZM12.5953 0L12.0933 5.25607L14.6113 0.347857L12.5953 0Z" fill="#FFFCFC"/>
</svg>
