<svg width="30" height="30" viewBox="0 0 30 30" fill="none" xmlns="http://www.w3.org/2000/svg">
<path d="M24.4025 5.70001H5.5975C4.92233 5.70001 4.375 6.24734 4.375 6.92251V25.7275C4.375 26.4027 4.92233 26.95 5.5975 26.95H24.4025C25.0777 26.95 25.625 26.4027 25.625 25.7275V6.92251C25.625 6.24734 25.0777 5.70001 24.4025 5.70001Z" stroke="black" stroke-linecap="round" stroke-linejoin="round"/>
<path d="M19.0625 5.70001V4.13751C19.0625 3.72311 19.2271 3.32568 19.5201 3.03266C19.8132 2.73963 20.2106 2.57501 20.625 2.57501C21.0394 2.57501 21.4368 2.73963 21.7299 3.03266C22.0229 3.32568 22.1875 3.72311 22.1875 4.13751V5.70001M4.375 9.13751H25.625H4.375ZM7.8125 5.70001V4.13751C7.8125 3.72311 7.97712 3.32568 8.27015 3.03266C8.56317 2.73963 8.9606 2.57501 9.375 2.57501V2.57501C9.7894 2.57501 10.1868 2.73963 10.4799 3.03266C10.7729 3.32568 10.9375 3.72311 10.9375 4.13751V5.70001H7.8125Z" stroke="black" stroke-linecap="round" stroke-linejoin="round"/>
</svg>
