<svg width="41" height="22" viewBox="0 0 41 22" fill="none" xmlns="http://www.w3.org/2000/svg">
<path d="M9.44086 2.34L9.68086 2.36V7.04H9.44086C9.21419 5.74667 8.78753 4.73333 8.16086 4C7.54753 3.25333 6.80086 2.88 5.92086 2.88C5.57419 2.88 5.25419 2.94667 4.96086 3.08C4.66753 3.2 4.41419 3.37333 4.20086 3.6C3.98753 3.81333 3.82086 4.06667 3.70086 4.36C3.58086 4.65333 3.52086 4.97333 3.52086 5.32C3.52086 5.56 3.54753 5.8 3.60086 6.04C3.65419 6.26667 3.72753 6.47333 3.82086 6.66C3.98086 6.96667 4.22086 7.24667 4.54086 7.5C4.67419 7.62 4.79419 7.72 4.90086 7.8C5.02086 7.86667 5.15419 7.93333 5.30086 8C5.46086 8.06667 5.66086 8.14667 5.90086 8.24C6.15419 8.32 6.48086 8.42667 6.88086 8.56C7.48086 8.74667 7.96753 8.93333 8.34086 9.12C8.71419 9.30667 9.05419 9.52667 9.36086 9.78C9.77419 10.1133 10.0875 10.5467 10.3009 11.08C10.5142 11.6133 10.6209 12.1867 10.6209 12.8C10.6209 13.4533 10.5009 14.0533 10.2609 14.6C10.0342 15.1467 9.71419 15.62 9.30086 16.02C8.88753 16.42 8.39419 16.7333 7.82086 16.96C7.26086 17.1733 6.64086 17.28 5.96086 17.28C5.58753 17.28 5.20753 17.2467 4.82086 17.18C4.44753 17.1267 4.02753 17.0267 3.56086 16.88L2.98086 16.7C2.70086 16.6067 2.46753 16.56 2.28086 16.56C1.84086 16.56 1.60086 16.7933 1.56086 17.26L1.30086 17.24V12.2H1.54086C1.66086 12.88 1.84753 13.5 2.10086 14.06C2.35419 14.62 2.66753 15.1 3.04086 15.5C3.41419 15.9 3.83419 16.2133 4.30086 16.44C4.76753 16.6533 5.26086 16.76 5.78086 16.76C6.18086 16.76 6.54753 16.6933 6.88086 16.56C7.21419 16.4267 7.50086 16.24 7.74086 16C7.98086 15.7467 8.16753 15.4533 8.30086 15.12C8.43419 14.7733 8.50086 14.4 8.50086 14C8.50086 12.7333 7.84086 11.8867 6.52086 11.46L5.16086 11.02C3.74753 10.5667 2.72753 9.99333 2.10086 9.3C1.48753 8.59333 1.18086 7.68 1.18086 6.56C1.18086 5.93333 1.28753 5.36 1.50086 4.84C1.72753 4.32 2.04086 3.88 2.44086 3.52C2.85419 3.14667 3.34086 2.86 3.90086 2.66C4.47419 2.44667 5.10086 2.34 5.78086 2.34C6.07419 2.34 6.41419 2.36667 6.80086 2.42C7.18753 2.46 7.51419 2.52667 7.78086 2.62L8.34086 2.8C8.46086 2.84 8.58086 2.86 8.70086 2.86C8.90086 2.86 9.05419 2.82 9.16086 2.74C9.28086 2.64667 9.37419 2.51333 9.44086 2.34Z" fill="#040404"/>
<path d="M29.6012 17.24L30.5012 12.2H30.7412V12.5C30.7412 13.1133 30.8278 13.68 31.0012 14.2C31.1745 14.72 31.4078 15.1733 31.7012 15.56C32.0078 15.9333 32.3678 16.2267 32.7812 16.44C33.1945 16.6533 33.6478 16.76 34.1412 16.76C34.5945 16.76 35.0145 16.6733 35.4012 16.5C35.8012 16.3267 36.1478 16.0933 36.4412 15.8C36.7478 15.4933 36.9878 15.14 37.1612 14.74C37.3345 14.34 37.4212 13.9133 37.4212 13.46C37.4212 12.4867 36.8945 11.82 35.8412 11.46L34.5412 11.02C33.3812 10.6333 32.5478 10.16 32.0412 9.6C31.5345 9.04 31.2812 8.33333 31.2812 7.48C31.2812 6.74667 31.4145 6.06667 31.6812 5.44C31.9612 4.8 32.3412 4.25333 32.8212 3.8C33.3012 3.34667 33.8678 2.99333 34.5212 2.74C35.1878 2.47333 35.9145 2.34 36.7012 2.34C36.9945 2.34 37.3212 2.36667 37.6812 2.42C38.0545 2.46 38.3745 2.52667 38.6412 2.62L39.1812 2.8C39.3012 2.84 39.4212 2.86 39.5412 2.86C39.9012 2.86 40.1745 2.68667 40.3612 2.34L40.6012 2.36L39.7812 7.04H39.5412V6.94C39.5412 5.68667 39.2878 4.7 38.7812 3.98C38.2878 3.24667 37.6012 2.88 36.7212 2.88C36.3212 2.88 35.9478 2.96 35.6012 3.12C35.2545 3.28 34.9478 3.5 34.6812 3.78C34.4278 4.04667 34.2212 4.36 34.0612 4.72C33.9145 5.08 33.8412 5.46667 33.8412 5.88C33.8412 6.22667 33.8945 6.52667 34.0012 6.78C34.1212 7.03333 34.3012 7.27333 34.5412 7.5C34.6612 7.62 34.7678 7.72 34.8612 7.8C34.9678 7.86667 35.0945 7.94 35.2412 8.02C35.3878 8.08667 35.5745 8.16 35.8012 8.24C36.0278 8.32 36.3345 8.42667 36.7212 8.56C37.2678 8.74667 37.7345 8.95333 38.1212 9.18C38.5078 9.39333 38.8212 9.64 39.0612 9.92C39.3145 10.1867 39.4945 10.4933 39.6012 10.84C39.7212 11.1733 39.7812 11.5533 39.7812 11.98C39.7812 12.7133 39.6345 13.4 39.3412 14.04C39.0478 14.68 38.6478 15.24 38.1412 15.72C37.6478 16.2 37.0612 16.58 36.3812 16.86C35.7145 17.14 35.0012 17.28 34.2412 17.28C33.8678 17.28 33.4945 17.2467 33.1212 17.18C32.7612 17.1267 32.3612 17.0267 31.9212 16.88L31.3612 16.7C31.2145 16.66 31.0812 16.6267 30.9612 16.6C30.8545 16.5733 30.7612 16.56 30.6812 16.56C30.2412 16.56 29.9612 16.7933 29.8412 17.26L29.6012 17.24Z" fill="#8064CB" fill-opacity="0.5"/>
<rect x="19" width="2" height="20" fill="#050505"/>
</svg>
