<svg width="250" height="250" viewBox="0 0 250 250" fill="none" xmlns="http://www.w3.org/2000/svg">
<path opacity="0.3" d="M249 125C249 193.483 193.483 249 125 249C56.5167 249 1 193.483 1 125C1 56.5167 56.5167 1 125 1C193.483 1 249 56.5167 249 125Z" stroke="#705BF4" stroke-width="2" stroke-linecap="round" stroke-linejoin="round"/>
<path d="M36.7739 133.479C36.7739 132.356 36.5786 131.355 36.188 130.477C35.7973 129.598 35.1707 128.808 34.3081 128.108C33.4454 127.409 32.3143 126.766 30.9145 126.18C29.5311 125.594 27.8302 125.024 25.812 124.471C24.0053 123.982 22.3777 123.462 20.9292 122.908C19.4806 122.339 18.2436 121.688 17.2182 120.955C16.2091 120.223 15.436 119.352 14.8989 118.343C14.3618 117.317 14.0932 116.089 14.0932 114.656C14.0932 113.305 14.3862 112.093 14.9721 111.019C15.5744 109.944 16.4044 109.033 17.4624 108.284C18.5366 107.535 19.7898 106.966 21.2221 106.575C22.6544 106.168 24.2088 105.965 25.8852 105.965C28.1964 105.965 30.2391 106.404 32.0132 107.283C33.7872 108.162 35.1788 109.391 36.188 110.97C37.2133 112.532 37.726 114.363 37.726 116.463H36.4077C36.4077 114.705 35.9682 113.134 35.0893 111.751C34.2104 110.368 32.9816 109.277 31.4028 108.479C29.8403 107.682 28.0011 107.283 25.8852 107.283C23.6554 107.283 21.7592 107.625 20.1967 108.309C18.6342 108.992 17.4461 109.896 16.6323 111.019C15.8185 112.125 15.4116 113.322 15.4116 114.607C15.4116 115.551 15.5744 116.43 15.8999 117.244C16.2417 118.058 16.8113 118.815 17.6089 119.515C18.4064 120.198 19.505 120.849 20.9048 121.468C22.3045 122.07 24.0623 122.648 26.1782 123.201C27.936 123.657 29.5392 124.17 30.9878 124.739C32.4526 125.309 33.714 125.984 34.7719 126.766C35.8462 127.547 36.6681 128.483 37.2378 129.573C37.8237 130.647 38.1167 131.933 38.1167 133.431C38.1167 134.879 37.7993 136.165 37.1645 137.288C36.546 138.411 35.6834 139.363 34.5766 140.145C33.4699 140.91 32.1841 141.495 30.7192 141.902C29.2706 142.293 27.7163 142.488 26.0561 142.488C24.5424 142.488 23.0125 142.309 21.4663 141.951C19.9201 141.593 18.504 141.015 17.2182 140.218C15.9324 139.404 14.8989 138.322 14.1176 136.971C13.3364 135.62 12.9458 133.951 12.9458 131.966H14.2641C14.2641 133.74 14.6303 135.221 15.3628 136.409C16.0952 137.597 17.0473 138.541 18.2192 139.241C19.4074 139.925 20.685 140.421 22.0522 140.73C23.4357 141.023 24.7703 141.17 26.0561 141.17C28.1395 141.17 29.9868 140.844 31.5981 140.193C33.2094 139.542 34.4708 138.639 35.3823 137.483C36.31 136.328 36.7739 134.993 36.7739 133.479ZM60.9682 137.044V123.396C60.9682 121.932 60.6508 120.678 60.0161 119.637C59.3976 118.595 58.4861 117.798 57.2817 117.244C56.0936 116.691 54.6369 116.414 52.9116 116.414C51.3165 116.414 49.8761 116.699 48.5903 117.269C47.3208 117.822 46.3117 118.587 45.563 119.563C44.8305 120.54 44.4643 121.639 44.4643 122.859L43.146 122.811C43.146 121.785 43.382 120.809 43.854 119.881C44.3423 118.953 45.0177 118.131 45.8803 117.415C46.7592 116.699 47.7928 116.137 48.9809 115.73C50.1854 115.307 51.4956 115.096 52.9116 115.096C54.7508 115.096 56.3702 115.405 57.77 116.023C59.186 116.642 60.2928 117.57 61.0903 118.807C61.8878 120.044 62.2866 121.59 62.2866 123.445V136.678C62.2866 137.622 62.3436 138.574 62.4575 139.534C62.5877 140.494 62.7586 141.243 62.9702 141.78V142H61.4565C61.2938 141.365 61.1717 140.6 61.0903 139.705C61.0089 138.794 60.9682 137.907 60.9682 137.044ZM61.5542 127.254L61.603 128.597H54.7182C53.0092 128.597 51.4793 128.768 50.1284 129.109C48.7775 129.435 47.63 129.899 46.686 130.501C45.742 131.103 45.0177 131.819 44.5132 132.649C44.0086 133.479 43.7563 134.399 43.7563 135.408C43.7563 136.466 44.0411 137.435 44.6108 138.313C45.1967 139.192 46.0024 139.892 47.0278 140.413C48.0532 140.934 49.2332 141.194 50.5678 141.194C52.4233 141.194 54.0672 140.893 55.4995 140.291C56.9318 139.673 58.1443 138.81 59.1372 137.703C60.13 136.596 60.8869 135.286 61.4077 133.772L61.9936 134.993C61.6844 135.905 61.2205 136.808 60.602 137.703C59.9998 138.582 59.2267 139.388 58.2827 140.12C57.3387 140.836 56.2238 141.414 54.938 141.854C53.6684 142.277 52.2117 142.488 50.5678 142.488C48.924 142.488 47.4917 142.187 46.271 141.585C45.0503 140.966 44.1063 140.12 43.4389 139.046C42.7716 137.955 42.438 136.71 42.438 135.311C42.438 134.139 42.7147 133.064 43.268 132.088C43.8214 131.095 44.6189 130.241 45.6606 129.524C46.7186 128.792 48.0044 128.23 49.518 127.84C51.0317 127.449 52.7407 127.254 54.645 127.254H61.5542ZM74.1274 142H72.8091V111.824C72.8091 110.132 73.0857 108.707 73.6391 107.552C74.1925 106.38 74.9819 105.493 76.0073 104.891C77.049 104.288 78.2859 103.987 79.7182 103.987C80.2228 103.987 80.7436 104.02 81.2807 104.085C81.8178 104.134 82.3387 104.24 82.8432 104.402L82.6479 105.672C82.1922 105.542 81.7609 105.452 81.354 105.403C80.9471 105.338 80.41 105.306 79.7426 105.306C78.587 105.306 77.5861 105.566 76.7397 106.087C75.9096 106.591 75.2667 107.332 74.811 108.309C74.3553 109.269 74.1274 110.441 74.1274 111.824V142ZM81.1098 115.584V116.927H68.2192V115.584H81.1098ZM95.4897 142.488C93.8784 142.488 92.3729 142.171 90.9731 141.536C89.5734 140.885 88.3445 139.974 87.2866 138.802C86.2286 137.63 85.3986 136.246 84.7964 134.651C84.2104 133.04 83.9174 131.274 83.9174 129.354V128.279C83.9174 126.342 84.2023 124.576 84.7719 122.981C85.3579 121.37 86.1554 119.979 87.1645 118.807C88.1899 117.618 89.3699 116.707 90.7046 116.072C92.0392 115.421 93.4715 115.096 95.0014 115.096C96.4663 115.096 97.8091 115.372 99.0298 115.926C100.25 116.463 101.308 117.228 102.204 118.221C103.115 119.214 103.815 120.402 104.303 121.785C104.791 123.169 105.036 124.699 105.036 126.375V127.913H84.7719V126.595H103.717V126.277C103.717 124.503 103.359 122.876 102.643 121.395C101.927 119.897 100.918 118.693 99.6157 117.781C98.3136 116.87 96.7755 116.414 95.0014 116.414C93.5366 116.414 92.202 116.723 90.9975 117.342C89.8094 117.96 88.784 118.815 87.9214 119.905C87.0587 120.979 86.3914 122.233 85.9194 123.665C85.4637 125.097 85.2358 126.635 85.2358 128.279V129.354C85.2358 130.997 85.4962 132.535 86.0171 133.968C86.5379 135.4 87.2622 136.661 88.1899 137.752C89.1176 138.826 90.2 139.673 91.437 140.291C92.6902 140.893 94.0411 141.194 95.4897 141.194C97.0034 141.194 98.4113 140.942 99.7133 140.438C101.032 139.933 102.236 138.973 103.327 137.557L104.254 138.216C103.668 139.046 102.96 139.786 102.13 140.438C101.317 141.072 100.356 141.577 99.2495 141.951C98.159 142.309 96.9057 142.488 95.4897 142.488Z" fill="#301818"/>
<path d="M145.124 133.479C145.124 132.356 144.928 131.355 144.538 130.477C144.147 129.598 143.52 128.808 142.658 128.108C141.795 127.409 140.664 126.766 139.264 126.18C137.881 125.594 136.18 125.024 134.162 124.471C132.355 123.982 130.727 123.462 129.279 122.908C127.83 122.339 126.593 121.688 125.568 120.955C124.559 120.223 123.786 119.352 123.249 118.343C122.711 117.317 122.443 116.089 122.443 114.656C122.443 113.305 122.736 112.093 123.322 111.019C123.924 109.944 124.754 109.033 125.812 108.284C126.886 107.535 128.139 106.966 129.572 106.575C131.004 106.168 132.558 105.965 134.235 105.965C136.546 105.965 138.589 106.404 140.363 107.283C142.137 108.162 143.528 109.391 144.538 110.97C145.563 112.532 146.076 114.363 146.076 116.463H144.757C144.757 114.705 144.318 113.134 143.439 111.751C142.56 110.368 141.331 109.277 139.752 108.479C138.19 107.682 136.351 107.283 134.235 107.283C132.005 107.283 130.109 107.625 128.546 108.309C126.984 108.992 125.796 109.896 124.982 111.019C124.168 112.125 123.761 113.322 123.761 114.607C123.761 115.551 123.924 116.43 124.249 117.244C124.591 118.058 125.161 118.815 125.958 119.515C126.756 120.198 127.855 120.849 129.254 121.468C130.654 122.07 132.412 122.648 134.528 123.201C136.286 123.657 137.889 124.17 139.337 124.739C140.802 125.309 142.064 125.984 143.122 126.766C144.196 127.547 145.018 128.483 145.587 129.573C146.173 130.647 146.466 131.933 146.466 133.431C146.466 134.879 146.149 136.165 145.514 137.288C144.896 138.411 144.033 139.363 142.926 140.145C141.819 140.91 140.534 141.495 139.069 141.902C137.62 142.293 136.066 142.488 134.406 142.488C132.892 142.488 131.362 142.309 129.816 141.951C128.27 141.593 126.854 141.015 125.568 140.218C124.282 139.404 123.249 138.322 122.467 136.971C121.686 135.62 121.295 133.951 121.295 131.966H122.614C122.614 133.74 122.98 135.221 123.712 136.409C124.445 137.597 125.397 138.541 126.569 139.241C127.757 139.925 129.035 140.421 130.402 140.73C131.785 141.023 133.12 141.17 134.406 141.17C136.489 141.17 138.336 140.844 139.948 140.193C141.559 139.542 142.82 138.639 143.732 137.483C144.66 136.328 145.124 134.993 145.124 133.479ZM154.376 104.5V142H153.058V104.5H154.376ZM172.54 142.488C170.929 142.488 169.424 142.171 168.024 141.536C166.624 140.885 165.395 139.974 164.337 138.802C163.279 137.63 162.449 136.246 161.847 134.651C161.261 133.04 160.968 131.274 160.968 129.354V128.279C160.968 126.342 161.253 124.576 161.823 122.981C162.409 121.37 163.206 119.979 164.215 118.807C165.241 117.618 166.421 116.707 167.755 116.072C169.09 115.421 170.522 115.096 172.052 115.096C173.517 115.096 174.86 115.372 176.081 115.926C177.301 116.463 178.359 117.228 179.254 118.221C180.166 119.214 180.866 120.402 181.354 121.785C181.842 123.169 182.086 124.699 182.086 126.375V127.913H161.823V126.595H180.768V126.277C180.768 124.503 180.41 122.876 179.694 121.395C178.978 119.897 177.969 118.693 176.666 117.781C175.364 116.87 173.826 116.414 172.052 116.414C170.587 116.414 169.253 116.723 168.048 117.342C166.86 117.96 165.835 118.815 164.972 119.905C164.11 120.979 163.442 122.233 162.97 123.665C162.514 125.097 162.287 126.635 162.287 128.279V129.354C162.287 130.997 162.547 132.535 163.068 133.968C163.589 135.4 164.313 136.661 165.241 137.752C166.168 138.826 167.251 139.673 168.488 140.291C169.741 140.893 171.092 141.194 172.54 141.194C174.054 141.194 175.462 140.942 176.764 140.438C178.082 139.933 179.287 138.973 180.377 137.557L181.305 138.216C180.719 139.046 180.011 139.786 179.181 140.438C178.367 141.072 177.407 141.577 176.3 141.951C175.21 142.309 173.957 142.488 172.54 142.488ZM197.736 142.488C196.124 142.488 194.619 142.171 193.219 141.536C191.819 140.885 190.591 139.974 189.533 138.802C188.475 137.63 187.645 136.246 187.042 134.651C186.457 133.04 186.164 131.274 186.164 129.354V128.279C186.164 126.342 186.448 124.576 187.018 122.981C187.604 121.37 188.401 119.979 189.411 118.807C190.436 117.618 191.616 116.707 192.951 116.072C194.285 115.421 195.718 115.096 197.248 115.096C198.712 115.096 200.055 115.372 201.276 115.926C202.497 116.463 203.554 117.228 204.45 118.221C205.361 119.214 206.061 120.402 206.549 121.785C207.038 123.169 207.282 124.699 207.282 126.375V127.913H187.018V126.595H205.963V126.277C205.963 124.503 205.605 122.876 204.889 121.395C204.173 119.897 203.164 118.693 201.862 117.781C200.56 116.87 199.022 116.414 197.248 116.414C195.783 116.414 194.448 116.723 193.244 117.342C192.055 117.96 191.03 118.815 190.167 119.905C189.305 120.979 188.638 122.233 188.165 123.665C187.71 125.097 187.482 126.635 187.482 128.279V129.354C187.482 130.997 187.742 132.535 188.263 133.968C188.784 135.4 189.508 136.661 190.436 137.752C191.364 138.826 192.446 139.673 193.683 140.291C194.936 140.893 196.287 141.194 197.736 141.194C199.249 141.194 200.657 140.942 201.959 140.438C203.278 139.933 204.482 138.973 205.573 137.557L206.5 138.216C205.915 139.046 205.207 139.786 204.376 140.438C203.563 141.072 202.602 141.577 201.496 141.951C200.405 142.309 199.152 142.488 197.736 142.488ZM214.704 120.662V152.156H213.385V115.584H214.704V120.662ZM233.624 128.523V129.036C233.624 131.054 233.397 132.885 232.941 134.529C232.501 136.173 231.859 137.589 231.012 138.777C230.166 139.965 229.124 140.885 227.887 141.536C226.666 142.171 225.275 142.488 223.712 142.488C222.231 142.488 220.897 142.277 219.708 141.854C218.52 141.43 217.487 140.844 216.608 140.096C215.745 139.347 215.045 138.501 214.508 137.557C213.971 136.596 213.597 135.595 213.385 134.554V123.812C213.678 122.575 214.11 121.427 214.679 120.369C215.249 119.311 215.957 118.392 216.803 117.61C217.65 116.813 218.642 116.194 219.782 115.755C220.937 115.315 222.231 115.096 223.664 115.096C225.226 115.096 226.626 115.405 227.863 116.023C229.1 116.642 230.141 117.537 230.988 118.709C231.85 119.865 232.501 121.272 232.941 122.933C233.397 124.576 233.624 126.44 233.624 128.523ZM232.282 129.036V128.523C232.282 126.766 232.103 125.154 231.745 123.689C231.403 122.208 230.874 120.931 230.158 119.856C229.458 118.766 228.563 117.92 227.472 117.317C226.398 116.715 225.137 116.414 223.688 116.414C222.028 116.414 220.628 116.691 219.489 117.244C218.366 117.781 217.446 118.481 216.73 119.344C216.03 120.19 215.485 121.093 215.094 122.054C214.72 122.998 214.443 123.877 214.264 124.69V133.943C214.557 135.278 215.094 136.491 215.875 137.581C216.657 138.672 217.698 139.542 219 140.193C220.319 140.844 221.898 141.17 223.737 141.17C225.185 141.17 226.439 140.869 227.497 140.267C228.571 139.664 229.458 138.826 230.158 137.752C230.874 136.661 231.403 135.376 231.745 133.895C232.103 132.413 232.282 130.794 232.282 129.036Z" fill="#5531B9"/>
</svg>
